<svg width="38" height="38" viewBox="0 0 38 38" fill="none" xmlns="http://www.w3.org/2000/svg">
<path d="M36 0H1.5C0.670312 0 0 0.670312 0 1.5V36C0 36.8297 0.670312 37.5 1.5 37.5H36C36.8297 37.5 37.5 36.8297 37.5 36V1.5C37.5 0.670312 36.8297 0 36 0ZM11.1234 31.9547H5.55938V14.0578H11.1234V31.9547ZM8.34375 11.6109C7.70591 11.6109 7.08238 11.4218 6.55204 11.0674C6.02169 10.7131 5.60833 10.2094 5.36424 9.62009C5.12015 9.0308 5.05628 8.38236 5.18072 7.75677C5.30515 7.13118 5.61231 6.55654 6.06333 6.10552C6.51436 5.65449 7.08899 5.34734 7.71458 5.2229C8.34017 5.09847 8.98861 5.16233 9.5779 5.40643C10.1672 5.65052 10.6709 6.06388 11.0252 6.59422C11.3796 7.12457 11.5687 7.74809 11.5687 8.38594C11.5641 10.1672 10.1203 11.6109 8.34375 11.6109ZM31.9547 31.9547H26.3953V23.25C26.3953 21.1734 26.3578 18.5062 23.5031 18.5062C20.6109 18.5062 20.1656 20.7656 20.1656 23.1V31.9547H14.6109V14.0578H19.9453V16.5047H20.0203C20.7609 15.0984 22.575 13.6125 25.2844 13.6125C30.9188 13.6125 31.9547 17.3203 31.9547 22.1391V31.9547Z" fill="#1E1E1E"/>
</svg>
